<?xml version="1.0" encoding="utf-8"?>
<!-- Generator: Adobe Illustrator 24.0.1, SVG Export Plug-In . SVG Version: 6.00 Build 0)  -->
<svg version="1.1" id="Capa_1" xmlns="http://www.w3.org/2000/svg" xmlns:xlink="http://www.w3.org/1999/xlink" x="0px" y="0px"
	 viewBox="0 0 612 792" style="enable-background:new 0 0 612 792;" xml:space="preserve">
<style type="text/css">
	.st0{fill:none;stroke:#451E60;stroke-width:9;stroke-miterlimit:10;}
</style>
<path class="st0" d="M305.1,246.61c-8.06,4.87-23.1-6.86-25.77-9c-18.38-14.78-23.63-36.99-27.4-53.99
	c-2.21-9.93-4.49-24.66-3.68-42.95c3.05,0.39,7.35,1.17,12.27,2.86c3.49,1.2,12.49,4.65,23.31,14.32
	c7.14,6.38,27.21,24.28,29.45,50.72c0.76,8.96-0.73,16.59-1.64,21.27C309.79,239.34,308.82,244.37,305.1,246.61z"/>
<path class="st0" d="M298.2,166.85c-0.56-13.63-1.13-27.26-1.69-40.89c3.58,1.83,7.28,3.86,11.04,6.14
	c10.3,6.21,18.98,12.87,26.18,19.22c-0.14,6.95-0.27,13.91-0.41,20.86c-2.7,2.66-6.38,6.84-9.41,12.68
	c-6.48,12.52-5.45,23.98-7.77,24.13c-1.8,0.12-3.37-6.67-5.58-13.67C306.74,183.2,302.02,173.62,298.2,166.85z"/>
<path class="st0" d="M314.51,247.84c5.39,4.39,15.7-0.28,19.63-2.05c6.33-2.84,20.56-10.68,33.13-34.36
	c1.43-2.69,6.45-12.07,10.28-26.24c4.92-18.23,5.11-33.99,4.45-44.52c-5.43,0.55-13.61,2.1-22.09,6.95
	c-5.55,3.18-10.37,8.11-19.77,17.85c-8.94,9.25-13.46,13.99-16.22,19.37c-1.85,3.6-1.22,3.46-6.12,20.35
	c-4.28,14.76-5.6,17.78-6.15,24.64C311.01,237.64,310.45,244.54,314.51,247.84z"/>
<path class="st0" d="M253.66,191.15c-4.04-0.06-15.94,0.34-23.33,3.36c-2.77,1.13-24.52,10.44-26.85,31.21
	c-1.39,12.36,4.86,22.03,7.38,25.51"/>
<path class="st0" d="M289.48,244.37c-1.13-4.84-22.75-4.08-35.99-2.54c-15.48,1.8-40.7,5.07-64.44,24.17
	c-8.83,7.1-19.75,15.88-25.84,31.89c-8.71,22.85-1.18,43.59,1.01,49.34c2.24,5.89,9.63,24.48,29.87,36.25
	c15.64,9.09,30.75,9.34,37.26,9.06c-2.03-3.9-4.7-9.61-7.05-16.78c-3.02-9.25-11.41-36.18-1.01-65.79
	c1.23-3.5,6.25-17.07,18.46-30.88C263.97,253.96,290.75,249.84,289.48,244.37z"/>
<path class="st0" d="M296.79,253.25c-8,4.49-12.02,10.98-14.1,14.43c-10.23,16.99-7.45,36.98-6.71,42.29
	c4.81,34.66,32.39,55.86,39.61,61.09c4.94-4.14,11.58-10.41,18.12-19.13c4.3-5.73,11.3-15.22,15.78-29.2
	c2.49-7.77,5.65-17.65,4.03-30.21c-2.3-17.83-13.56-35.66-28.19-41.28c-6.76-2.6-13.43-2.35-13.43-2.35
	C310.31,248.94,303.82,249.3,296.79,253.25z"/>
<path class="st0" d="M314.57,430.8c-18.51-10.99-31.71-22.64-40.28-31.21c-15.52-15.53-33.68-33.7-39.27-62.09
	c-1.54-7.85-4.05-21.42,1.01-37.26c7.78-24.36,28.02-37.05,34.24-40.95c9.89-6.2,18.51-8.82,20.47-9.4
	c19.47-5.72,46.33-5.11,69.48,10.4c4.85,3.25,31.79,22.07,35.24,55.05c2.58,24.66-9.48,42.92-21.48,61.09
	C356.01,403.63,332.91,420.56,314.57,430.8z"/>
<path class="st0" d="M379.35,190.15c3.93,0.94,9.52,2.61,15.78,5.71c6.18,3.06,12.16,6.03,17.45,12.42
	c2.86,3.46,7.55,10.36,8.73,20.14c1.58,13.11-4.17,22.92-6.04,25.84"/>
<path class="st0" d="M339.08,245.53c1.32-5.44,24.93-4.21,35.91-3.02c13.46,1.46,35.05,4.06,57.06,19.47
	c12.35,8.64,32.23,22.55,37.59,48.67c5.24,25.52-6.88,45.69-8.73,48.67c-20.1,32.32-59.66,32.58-62.09,32.56
	c2.63-5.85,5.74-13.91,8.06-23.83c1.37-5.87,4.21-18.39,3.36-33.9c-0.3-5.44-1.47-26.68-12.75-44.98
	C377.45,256.7,337.35,252.66,339.08,245.53z"/>
<path class="st0" d="M314.87,433.31c0.29,39.41,0.58,78.82,0.86,118.23"/>
<path class="st0" d="M332.13,655.09c-11.51,0.12-23.01,0.24-34.52,0.37c-0.41-5.97-1.15-14.27-2.59-24.1
	c-2.66-18.22-8.47-46.97-22.44-79.83c-7.64-17.96-19.47-45.8-44.01-74.22c-27.69-32.07-54.37-44.98-51.78-49.62
	c2.38-4.28,26.64,3.7,45.31,13.38c21.55,11.17,36.75,25.19,46.6,35.81c42.09,45.38,52.82,100.24,58.25,129.88
	C330.61,626.75,331.76,643.59,332.13,655.09z"/>
<path class="st0" d="M330.13,628.04c4.27-21.55,12.6-52.36,30.48-85.56c38.02-70.62,95-107.18,88.89-115.64
	c-4.88-6.76-44.92,14.81-47.03,15.96c-9.27,5.04-26.57,15.57-44.01,34.09c-26.62,28.25-38.57,59.19-44.13,78.58"/>
</svg>
