<svg xmlns="http://www.w3.org/2000/svg" width="805" height="600"><rect width="805" height="600" x="0" y="0" fill="#FFFFFF" id="backgorund"/><g id="viz"><g transform="translate(0,0)"><g transform="translate(28,20)"><g class="bars"><rect id="undefined - 1.4" x="0" y="52.1141148623396" height="12.999460155309167" width="124.63750000000003" fill="#fb5198"/><rect id="undefined - 1.3" x="0" y="39.091399858809844" height="12.999460155309167" width="86.28750000000001" fill="#fb5198"/><rect id="undefined - 1.5" x="0" y="65.13682986586936" height="12.999460155309167" width="148.60625000000005" fill="#fb5198"/><rect id="undefined - 1.7" x="0" y="91.18225987292887" height="12.999460155309167" width="67.1125" fill="#fb5198"/><rect id="undefined - 1.6" x="0" y="78.15954486939911" height="12.999460155309167" width="95.87499999999999" fill="#fb5198"/><rect id="undefined - 1.1" x="0" y="13.04596985175033" height="12.999460155309167" width="4.79375" fill="#fb5198"/><rect id="undefined - 1.2" x="0" y="26.068684855280086" height="12.999460155309167" width="19.175" fill="#fb5198"/><rect id="undefined - 1" x="0" y="0.02325484822057433" height="12.999460155309167" width="9.5875" fill="#fb5198"/><rect id="undefined - 1.9" x="0" y="104.20497487645862" height="12.999460155309167" width="28.762500000000003" fill="#fb5198"/><rect id="undefined - 4.7" x="0" y="299.545699929405" height="12.999460155309167" width="340.35625000000005" fill="#fdbe70"/><rect id="undefined - 4.5" x="0" y="273.50026992234547" height="12.999460155309167" width="580.0437499999999" fill="#befe8c"/><rect id="undefined - 4.9" x="0" y="325.5911299364645" height="12.999460155309167" width="412.2625" fill="#befe8c"/><rect id="undefined - 4" x="0" y="208.38669490469667" height="12.999460155309167" width="292.41875" fill="#fdbe70"/><rect id="undefined - 4.6" x="0" y="286.5229849258752" height="12.999460155309167" width="201.33749999999998" fill="#fdbe70"/><rect id="undefined - 3.3" x="0" y="130.25040488351814" height="12.999460155309167" width="95.875" fill="#fdbe70"/><rect id="undefined - 3.9" x="0" y="195.3639799011669" height="12.999460155309167" width="177.36875" fill="#fdbe70"/><rect id="undefined - 3.5" x="0" y="143.2731198870479" height="12.999460155309167" width="95.875" fill="#fdbe70"/><rect id="undefined - 4.2" x="0" y="234.43212491175618" height="12.999460155309167" width="254.06875" fill="#fdbe70"/><rect id="undefined - 3.6" x="0" y="156.29583489057765" height="12.999460155309167" width="62.31875" fill="#fdbe70"/><rect id="undefined - 4.4" x="0" y="260.4775549188157" height="12.999460155309167" width="254.06875" fill="#fdbe70"/><rect id="undefined - 4.1" x="0" y="221.40940990822642" height="12.999460155309167" width="172.575" fill="#fdbe70"/><rect id="undefined - 4.8" x="0" y="312.56841493293473" height="12.999460155309167" width="325.97499999999997" fill="#befe8c"/><rect id="undefined - 4.3" x="0" y="247.45483991528593" height="12.999460155309167" width="124.6375" fill="#fdbe70"/><rect id="undefined - 5" x="0" y="338.61384493999424" height="12.999460155309167" width="340.35625" fill="#befe8c"/><rect id="undefined - 3.8" x="0" y="182.34126489763716" height="12.999460155309167" width="52.73125" fill="#fdbe70"/><rect id="undefined - 3.7" x="0" y="169.3185498941074" height="12.999460155309167" width="47.9375" fill="#fdbe70"/><rect id="undefined - 5.1" x="0" y="351.636559943524" height="12.999460155309167" width="738.2375000000001" fill="#befe8c"/><rect id="undefined - 3" x="0" y="117.22768987998838" height="12.999460155309167" width="52.73125" fill="#fdbe70"/><rect id="undefined - 6" x="0" y="468.8409949752918" height="12.999460155309167" width="206.13125" fill="#784aa1"/><rect id="undefined - 5.9" x="0" y="455.818279971762" height="12.999460155309167" width="210.925" fill="#784aa1"/><rect id="undefined - 5.6" x="0" y="416.75013496117276" height="12.999460155309167" width="589.63125" fill="#784aa1"/><rect id="undefined - 5.8" x="0" y="442.79556496823227" height="12.999460155309167" width="268.45" fill="#784aa1"/><rect id="undefined - 6.6" x="0" y="520.9318549894108" height="12.999460155309167" width="100.66875" fill="#784aa1"/><rect id="undefined - 6.3" x="0" y="494.8864249823513" height="12.999460155309167" width="86.28750000000001" fill="#784aa1"/><rect id="undefined - 6.1" x="0" y="481.86370997882153" height="12.999460155309167" width="321.18125000000003" fill="#784aa1"/><rect id="undefined - 5.3" x="0" y="377.6819899505835" height="12.999460155309167" width="201.33749999999998" fill="#784aa1"/><rect id="undefined - 5.5" x="0" y="403.727419957643" height="12.999460155309167" width="273.24375000000003" fill="#784aa1"/><rect id="undefined - 6.7" x="0" y="533.9545699929406" height="12.999460155309167" width="201.3375" fill="#784aa1"/><rect id="undefined - 6.9" x="0" y="546.9772849964704" height="12.999460155309167" width="110.25625" fill="#784aa1"/><rect id="undefined - 5.7" x="0" y="429.7728499647025" height="12.999460155309167" width="330.76875" fill="#784aa1"/><rect id="undefined - 6.4" x="0" y="507.90913998588104" height="12.999460155309167" width="95.875" fill="#784aa1"/><rect id="undefined - 5.4" x="0" y="390.70470495411325" height="12.999460155309167" width="210.925" fill="#784aa1"/><rect id="undefined - 5.2" x="0" y="364.65927494705375" height="12.999460155309167" width="206.13125" fill="#784aa1"/></g><g id="xAxis" transform="translate(0,560)" fill="none" font-size="10" font-family="sans-serif" text-anchor="middle"><path class="domain" stroke="currentColor" d="M0.5,6V0.5H767.5V6"/><g class="tick" opacity="1" transform="translate(0.5,0)"><line stroke="currentColor" y2="6"/><text fill="currentColor" y="9" dy="0.71em">0</text></g><g class="tick" opacity="1" transform="translate(96.375,0)"><line stroke="currentColor" y2="6"/><text fill="currentColor" y="9" dy="0.71em">2</text></g><g class="tick" opacity="1" transform="translate(192.25,0)"><line stroke="currentColor" y2="6"/><text fill="currentColor" y="9" dy="0.71em">4</text></g><g class="tick" opacity="1" transform="translate(288.125,0)"><line stroke="currentColor" y2="6"/><text fill="currentColor" y="9" dy="0.71em">6</text></g><g class="tick" opacity="1" transform="translate(384,0)"><line stroke="currentColor" y2="6"/><text fill="currentColor" y="9" dy="0.71em">8</text></g><g class="tick" opacity="1" transform="translate(479.875,0)"><line stroke="currentColor" y2="6"/><text fill="currentColor" y="9" dy="0.71em">10</text></g><g class="tick" opacity="1" transform="translate(575.75,0)"><line stroke="currentColor" y2="6"/><text fill="currentColor" y="9" dy="0.71em">12</text></g><g class="tick" opacity="1" transform="translate(671.625,0)"><line stroke="currentColor" y2="6"/><text fill="currentColor" y="9" dy="0.71em">14</text></g><g class="tick" opacity="1" transform="translate(767.5,0)"><line stroke="currentColor" y2="6"/><text fill="currentColor" y="9" dy="0.71em">16</text></g><text font-family="Arial, sans-serif" font-size="10" x="767" dy="-5" fill="black" font-weight="bold" text-anchor="end">Petal Width (cm) [sum]</text></g><g id="yAxis" transform="translate(0,0)" fill="none" font-size="10" font-family="sans-serif" text-anchor="end"><path class="domain" stroke="currentColor" d="M0.5,0.5V560.5"/><g class="tick" opacity="1" transform="translate(0,6.522984925875158)"><line stroke="currentColor" x2="-6"/><text fill="currentColor" x="-9" dy="0.32em">1</text></g><g class="tick" opacity="1" transform="translate(0,19.545699929404915)"><line stroke="currentColor" x2="-6"/><text fill="currentColor" x="-9" dy="0.32em">1.1</text></g><g class="tick" opacity="1" transform="translate(0,32.56841493293467)"><line stroke="currentColor" x2="-6"/><text fill="currentColor" x="-9" dy="0.32em">1.2</text></g><g class="tick" opacity="1" transform="translate(0,45.59112993646443)"><line stroke="currentColor" x2="-6"/><text fill="currentColor" x="-9" dy="0.32em">1.3</text></g><g class="tick" opacity="1" transform="translate(0,58.61384493999418)"><line stroke="currentColor" x2="-6"/><text fill="currentColor" x="-9" dy="0.32em">1.4</text></g><g class="tick" opacity="1" transform="translate(0,71.63655994352395)"><line stroke="currentColor" x2="-6"/><text fill="currentColor" x="-9" dy="0.32em">1.5</text></g><g class="tick" opacity="1" transform="translate(0,84.6592749470537)"><line stroke="currentColor" x2="-6"/><text fill="currentColor" x="-9" dy="0.32em">1.6</text></g><g class="tick" opacity="1" transform="translate(0,97.68198995058346)"><line stroke="currentColor" x2="-6"/><text fill="currentColor" x="-9" dy="0.32em">1.7</text></g><g class="tick" opacity="1" transform="translate(0,110.70470495411321)"><line stroke="currentColor" x2="-6"/><text fill="currentColor" x="-9" dy="0.32em">1.9</text></g><g class="tick" opacity="1" transform="translate(0,123.72741995764297)"><line stroke="currentColor" x2="-6"/><text fill="currentColor" x="-9" dy="0.32em">3</text></g><g class="tick" opacity="1" transform="translate(0,136.75013496117273)"><line stroke="currentColor" x2="-6"/><text fill="currentColor" x="-9" dy="0.32em">3.3</text></g><g class="tick" opacity="1" transform="translate(0,149.7728499647025)"><line stroke="currentColor" x2="-6"/><text fill="currentColor" x="-9" dy="0.32em">3.5</text></g><g class="tick" opacity="1" transform="translate(0,162.79556496823224)"><line stroke="currentColor" x2="-6"/><text fill="currentColor" x="-9" dy="0.32em">3.6</text></g><g class="tick" opacity="1" transform="translate(0,175.818279971762)"><line stroke="currentColor" x2="-6"/><text fill="currentColor" x="-9" dy="0.32em">3.7</text></g><g class="tick" opacity="1" transform="translate(0,188.84099497529175)"><line stroke="currentColor" x2="-6"/><text fill="currentColor" x="-9" dy="0.32em">3.8</text></g><g class="tick" opacity="1" transform="translate(0,201.8637099788215)"><line stroke="currentColor" x2="-6"/><text fill="currentColor" x="-9" dy="0.32em">3.9</text></g><g class="tick" opacity="1" transform="translate(0,214.88642498235126)"><line stroke="currentColor" x2="-6"/><text fill="currentColor" x="-9" dy="0.32em">4</text></g><g class="tick" opacity="1" transform="translate(0,227.909139985881)"><line stroke="currentColor" x2="-6"/><text fill="currentColor" x="-9" dy="0.32em">4.1</text></g><g class="tick" opacity="1" transform="translate(0,240.93185498941077)"><line stroke="currentColor" x2="-6"/><text fill="currentColor" x="-9" dy="0.32em">4.2</text></g><g class="tick" opacity="1" transform="translate(0,253.95456999294052)"><line stroke="currentColor" x2="-6"/><text fill="currentColor" x="-9" dy="0.32em">4.3</text></g><g class="tick" opacity="1" transform="translate(0,266.9772849964703)"><line stroke="currentColor" x2="-6"/><text fill="currentColor" x="-9" dy="0.32em">4.4</text></g><g class="tick" opacity="1" transform="translate(0,280.00000000000006)"><line stroke="currentColor" x2="-6"/><text fill="currentColor" x="-9" dy="0.32em">4.5</text></g><g class="tick" opacity="1" transform="translate(0,293.0227150035298)"><line stroke="currentColor" x2="-6"/><text fill="currentColor" x="-9" dy="0.32em">4.6</text></g><g class="tick" opacity="1" transform="translate(0,306.04543000705957)"><line stroke="currentColor" x2="-6"/><text fill="currentColor" x="-9" dy="0.32em">4.7</text></g><g class="tick" opacity="1" transform="translate(0,319.0681450105893)"><line stroke="currentColor" x2="-6"/><text fill="currentColor" x="-9" dy="0.32em">4.8</text></g><g class="tick" opacity="1" transform="translate(0,332.0908600141191)"><line stroke="currentColor" x2="-6"/><text fill="currentColor" x="-9" dy="0.32em">4.9</text></g><g class="tick" opacity="1" transform="translate(0,345.1135750176488)"><line stroke="currentColor" x2="-6"/><text fill="currentColor" x="-9" dy="0.32em">5</text></g><g class="tick" opacity="1" transform="translate(0,358.1362900211786)"><line stroke="currentColor" x2="-6"/><text fill="currentColor" x="-9" dy="0.32em">5.1</text></g><g class="tick" opacity="1" transform="translate(0,371.15900502470834)"><line stroke="currentColor" x2="-6"/><text fill="currentColor" x="-9" dy="0.32em">5.2</text></g><g class="tick" opacity="1" transform="translate(0,384.1817200282381)"><line stroke="currentColor" x2="-6"/><text fill="currentColor" x="-9" dy="0.32em">5.3</text></g><g class="tick" opacity="1" transform="translate(0,397.20443503176784)"><line stroke="currentColor" x2="-6"/><text fill="currentColor" x="-9" dy="0.32em">5.4</text></g><g class="tick" opacity="1" transform="translate(0,410.2271500352976)"><line stroke="currentColor" x2="-6"/><text fill="currentColor" x="-9" dy="0.32em">5.5</text></g><g class="tick" opacity="1" transform="translate(0,423.24986503882735)"><line stroke="currentColor" x2="-6"/><text fill="currentColor" x="-9" dy="0.32em">5.6</text></g><g class="tick" opacity="1" transform="translate(0,436.2725800423571)"><line stroke="currentColor" x2="-6"/><text fill="currentColor" x="-9" dy="0.32em">5.7</text></g><g class="tick" opacity="1" transform="translate(0,449.29529504588686)"><line stroke="currentColor" x2="-6"/><text fill="currentColor" x="-9" dy="0.32em">5.8</text></g><g class="tick" opacity="1" transform="translate(0,462.3180100494166)"><line stroke="currentColor" x2="-6"/><text fill="currentColor" x="-9" dy="0.32em">5.9</text></g><g class="tick" opacity="1" transform="translate(0,475.34072505294637)"><line stroke="currentColor" x2="-6"/><text fill="currentColor" x="-9" dy="0.32em">6</text></g><g class="tick" opacity="1" transform="translate(0,488.3634400564761)"><line stroke="currentColor" x2="-6"/><text fill="currentColor" x="-9" dy="0.32em">6.1</text></g><g class="tick" opacity="1" transform="translate(0,501.3861550600059)"><line stroke="currentColor" x2="-6"/><text fill="currentColor" x="-9" dy="0.32em">6.3</text></g><g class="tick" opacity="1" transform="translate(0,514.4088700635356)"><line stroke="currentColor" x2="-6"/><text fill="currentColor" x="-9" dy="0.32em">6.4</text></g><g class="tick" opacity="1" transform="translate(0,527.4315850670654)"><line stroke="currentColor" x2="-6"/><text fill="currentColor" x="-9" dy="0.32em">6.6</text></g><g class="tick" opacity="1" transform="translate(0,540.4543000705952)"><line stroke="currentColor" x2="-6"/><text fill="currentColor" x="-9" dy="0.32em">6.7</text></g><g class="tick" opacity="1" transform="translate(0,553.477015074125)"><line stroke="currentColor" x2="-6"/><text fill="currentColor" x="-9" dy="0.32em">6.9</text></g><text font-family="Arial, sans-serif" font-size="10" x="4" fill="black" font-weight="bold" text-anchor="start" dominant-baseline="hanging">Petal Length (cm)</text></g></g><text y="4" x="4" style="font-family: Arial, sans-serif; font-size: 12px; fill: black; font-weight: bold; dominant-baseline: hanging;"/></g></g></svg>